<svg width="177" height="55" viewBox="0 0 177 55" fill="none" xmlns="http://www.w3.org/2000/svg">
<rect width="176.32" height="55" rx="6" fill="#1C6EBC"/>
<path d="M41.25 34V27.8875L39.3 29.8375L38.25 28.75L42 25L45.75 28.75L44.7 29.8375L42.75 27.8875V34H41.25ZM36 25.75V23.5C36 23.0875 36.1469 22.7344 36.4406 22.4406C36.7344 22.1469 37.0875 22 37.5 22H46.5C46.9125 22 47.2656 22.1469 47.5594 22.4406C47.8531 22.7344 48 23.0875 48 23.5V25.75H46.5V23.5H37.5V25.75H36Z" fill="white"/>
<path d="M54.6094 22.5781C56.0833 22.5781 57.1589 22.8672 57.8359 23.4453C58.5182 24.0182 58.8594 24.8411 58.8594 25.9141C58.8594 26.3984 58.7786 26.8594 58.6172 27.2969C58.4609 27.7292 58.2057 28.112 57.8516 28.4453C57.4974 28.7734 57.0312 29.0339 56.4531 29.2266C55.8802 29.4141 55.1771 29.5078 54.3438 29.5078H52.9531V34H51.625V22.5781H54.6094ZM54.4844 23.7109H52.9531V28.3672H54.1953C54.9245 28.3672 55.5312 28.2891 56.0156 28.1328C56.5052 27.9766 56.8724 27.724 57.1172 27.375C57.362 27.0208 57.4844 26.5521 57.4844 25.9688C57.4844 25.2083 57.2422 24.6432 56.7578 24.2734C56.2734 23.8984 55.5156 23.7109 54.4844 23.7109ZM68.125 25.4375V34H67.0625L66.875 32.7969H66.8047C66.6276 33.0938 66.3984 33.3438 66.1172 33.5469C65.8359 33.75 65.5182 33.901 65.1641 34C64.8151 34.1042 64.4427 34.1562 64.0469 34.1562C63.3698 34.1562 62.8021 34.0469 62.3438 33.8281C61.8854 33.6094 61.5391 33.2708 61.3047 32.8125C61.0755 32.3542 60.9609 31.7656 60.9609 31.0469V25.4375H62.2734V30.9531C62.2734 31.6667 62.4349 32.2005 62.7578 32.5547C63.0807 32.9036 63.5729 33.0781 64.2344 33.0781C64.8698 33.0781 65.375 32.9583 65.75 32.7188C66.1302 32.4792 66.4036 32.1276 66.5703 31.6641C66.737 31.1953 66.8203 30.6224 66.8203 29.9453V25.4375H68.125ZM72.1641 21.8438V24.8828C72.1641 25.2318 72.1536 25.5703 72.1328 25.8984C72.1172 26.2266 72.1042 26.4818 72.0938 26.6641H72.1641C72.3984 26.2786 72.737 25.9531 73.1797 25.6875C73.6224 25.4219 74.1875 25.2891 74.875 25.2891C75.9479 25.2891 76.8021 25.6615 77.4375 26.4062C78.0781 27.1458 78.3984 28.2474 78.3984 29.7109C78.3984 30.6745 78.2526 31.487 77.9609 32.1484C77.6693 32.8099 77.2578 33.3099 76.7266 33.6484C76.1953 33.987 75.5677 34.1562 74.8438 34.1562C74.1667 34.1562 73.6094 34.0312 73.1719 33.7812C72.7396 33.526 72.4062 33.2161 72.1719 32.8516H72.0703L71.8047 34H70.8672V21.8438H72.1641ZM74.6641 26.375C74.0443 26.375 73.5521 26.4974 73.1875 26.7422C72.8229 26.9818 72.5599 27.3464 72.3984 27.8359C72.2422 28.3203 72.1641 28.9349 72.1641 29.6797V29.75C72.1641 30.8281 72.3438 31.6536 72.7031 32.2266C73.0625 32.7943 73.7161 33.0781 74.6641 33.0781C75.4609 33.0781 76.0573 32.7865 76.4531 32.2031C76.8542 31.6198 77.0547 30.7865 77.0547 29.7031C77.0547 28.599 76.8568 27.7682 76.4609 27.2109C76.0703 26.6536 75.4714 26.375 74.6641 26.375ZM81.9688 34H80.6641V21.8438H81.9688V34ZM86.0078 25.4375V34H84.7109V25.4375H86.0078ZM85.375 22.2344C85.5885 22.2344 85.7708 22.3047 85.9219 22.4453C86.0781 22.5807 86.1562 22.7943 86.1562 23.0859C86.1562 23.3724 86.0781 23.5859 85.9219 23.7266C85.7708 23.8672 85.5885 23.9375 85.375 23.9375C85.151 23.9375 84.9635 23.8672 84.8125 23.7266C84.6667 23.5859 84.5938 23.3724 84.5938 23.0859C84.5938 22.7943 84.6667 22.5807 84.8125 22.4453C84.9635 22.3047 85.151 22.2344 85.375 22.2344ZM94.2969 31.6562C94.2969 32.2031 94.1589 32.6641 93.8828 33.0391C93.612 33.4089 93.2214 33.6875 92.7109 33.875C92.2057 34.0625 91.6016 34.1562 90.8984 34.1562C90.2995 34.1562 89.7812 34.1094 89.3438 34.0156C88.9062 33.9219 88.5234 33.7891 88.1953 33.6172V32.4219C88.5443 32.5938 88.9609 32.75 89.4453 32.8906C89.9297 33.0312 90.4245 33.1016 90.9297 33.1016C91.6693 33.1016 92.2057 32.9818 92.5391 32.7422C92.8724 32.5026 93.0391 32.1771 93.0391 31.7656C93.0391 31.5312 92.9714 31.3255 92.8359 31.1484C92.7057 30.9661 92.4844 30.7917 92.1719 30.625C91.8594 30.4531 91.4271 30.2656 90.875 30.0625C90.3281 29.8542 89.8542 29.6484 89.4531 29.4453C89.0573 29.237 88.75 28.9844 88.5312 28.6875C88.3177 28.3906 88.2109 28.0052 88.2109 27.5312C88.2109 26.8073 88.5026 26.2526 89.0859 25.8672C89.6745 25.4766 90.4453 25.2812 91.3984 25.2812C91.9141 25.2812 92.3958 25.3333 92.8438 25.4375C93.2969 25.5365 93.7188 25.6719 94.1094 25.8438L93.6719 26.8828C93.3177 26.7318 92.9401 26.6042 92.5391 26.5C92.138 26.3958 91.7292 26.3438 91.3125 26.3438C90.7135 26.3438 90.2526 26.4427 89.9297 26.6406C89.612 26.8385 89.4531 27.1094 89.4531 27.4531C89.4531 27.7188 89.526 27.9375 89.6719 28.1094C89.8229 28.2812 90.0625 28.4427 90.3906 28.5938C90.7188 28.7448 91.151 28.9219 91.6875 29.125C92.224 29.3229 92.6875 29.5286 93.0781 29.7422C93.4688 29.9505 93.7682 30.2057 93.9766 30.5078C94.1901 30.8047 94.2969 31.1875 94.2969 31.6562ZM97.6797 21.8438V25.4766C97.6797 25.6849 97.6745 25.8958 97.6641 26.1094C97.6536 26.3177 97.6354 26.5104 97.6094 26.6875H97.6953C97.8724 26.3854 98.0964 26.1328 98.3672 25.9297C98.6432 25.7214 98.9557 25.5651 99.3047 25.4609C99.6536 25.3516 100.023 25.2969 100.414 25.2969C101.102 25.2969 101.674 25.4062 102.133 25.625C102.596 25.8438 102.943 26.1823 103.172 26.6406C103.406 27.099 103.523 27.6927 103.523 28.4219V34H102.242V28.5078C102.242 27.7943 102.078 27.2604 101.75 26.9062C101.427 26.5521 100.93 26.375 100.258 26.375C99.6224 26.375 99.1146 26.4974 98.7344 26.7422C98.3594 26.9818 98.0885 27.3359 97.9219 27.8047C97.7604 28.2734 97.6797 28.8464 97.6797 29.5234V34H96.3828V21.8438H97.6797ZM114.242 25.2812C114.414 25.2812 114.594 25.2917 114.781 25.3125C114.969 25.3281 115.135 25.3516 115.281 25.3828L115.117 26.5859C114.977 26.5495 114.82 26.5208 114.648 26.5C114.477 26.4792 114.315 26.4688 114.164 26.4688C113.82 26.4688 113.495 26.5391 113.188 26.6797C112.885 26.8151 112.62 27.013 112.391 27.2734C112.161 27.5286 111.982 27.8385 111.852 28.2031C111.721 28.5625 111.656 28.9635 111.656 29.4062V34H110.352V25.4375H111.43L111.57 27.0156H111.625C111.802 26.6979 112.016 26.4089 112.266 26.1484C112.516 25.8828 112.805 25.6719 113.133 25.5156C113.466 25.3594 113.836 25.2812 114.242 25.2812ZM120.195 25.2812C120.924 25.2812 121.549 25.4427 122.07 25.7656C122.591 26.0885 122.99 26.5417 123.266 27.125C123.542 27.7031 123.68 28.3802 123.68 29.1562V29.9609H117.766C117.781 30.9661 118.031 31.7318 118.516 32.2578C119 32.7839 119.682 33.0469 120.562 33.0469C121.104 33.0469 121.583 32.9974 122 32.8984C122.417 32.7995 122.849 32.6536 123.297 32.4609V33.6016C122.865 33.7943 122.435 33.9349 122.008 34.0234C121.586 34.112 121.086 34.1562 120.508 34.1562C119.685 34.1562 118.966 33.9896 118.352 33.6562C117.742 33.3177 117.268 32.8229 116.93 32.1719C116.591 31.5208 116.422 30.724 116.422 29.7812C116.422 28.8594 116.576 28.0625 116.883 27.3906C117.195 26.7135 117.633 26.1927 118.195 25.8281C118.763 25.4635 119.43 25.2812 120.195 25.2812ZM120.18 26.3438C119.487 26.3438 118.935 26.5703 118.523 27.0234C118.112 27.4766 117.867 28.1094 117.789 28.9219H122.32C122.315 28.4115 122.234 27.9635 122.078 27.5781C121.927 27.1875 121.695 26.8854 121.383 26.6719C121.07 26.4531 120.669 26.3438 120.18 26.3438ZM129.906 25.2812C130.974 25.2812 131.826 25.6484 132.461 26.3828C133.096 27.1172 133.414 28.2214 133.414 29.6953C133.414 30.6693 133.268 31.487 132.977 32.1484C132.685 32.8099 132.273 33.3099 131.742 33.6484C131.216 33.987 130.594 34.1562 129.875 34.1562C129.422 34.1562 129.023 34.0964 128.68 33.9766C128.336 33.8568 128.042 33.6953 127.797 33.4922C127.552 33.2891 127.349 33.0677 127.188 32.8281H127.094C127.109 33.0312 127.128 33.276 127.148 33.5625C127.174 33.849 127.188 34.099 127.188 34.3125V37.8281H125.883V25.4375H126.953L127.125 26.7031H127.188C127.354 26.4427 127.557 26.2057 127.797 25.9922C128.036 25.7734 128.328 25.6016 128.672 25.4766C129.021 25.3464 129.432 25.2812 129.906 25.2812ZM129.68 26.375C129.086 26.375 128.607 26.4896 128.242 26.7188C127.883 26.9479 127.62 27.2917 127.453 27.75C127.286 28.2031 127.198 28.7734 127.188 29.4609V29.7109C127.188 30.4349 127.266 31.0469 127.422 31.5469C127.583 32.0469 127.846 32.4271 128.211 32.6875C128.581 32.9479 129.076 33.0781 129.695 33.0781C130.227 33.0781 130.669 32.9349 131.023 32.6484C131.378 32.362 131.641 31.9635 131.812 31.4531C131.99 30.9375 132.078 30.3464 132.078 29.6797C132.078 28.6693 131.88 27.8672 131.484 27.2734C131.094 26.6745 130.492 26.375 129.68 26.375ZM143.062 29.7031C143.062 30.4062 142.971 31.0339 142.789 31.5859C142.607 32.138 142.344 32.6042 142 32.9844C141.656 33.3646 141.24 33.6562 140.75 33.8594C140.266 34.0573 139.716 34.1562 139.102 34.1562C138.529 34.1562 138.003 34.0573 137.523 33.8594C137.049 33.6562 136.638 33.3646 136.289 32.9844C135.945 32.6042 135.677 32.138 135.484 31.5859C135.297 31.0339 135.203 30.4062 135.203 29.7031C135.203 28.7656 135.362 27.9688 135.68 27.3125C135.997 26.651 136.451 26.1484 137.039 25.8047C137.633 25.4557 138.339 25.2812 139.156 25.2812C139.938 25.2812 140.62 25.4557 141.203 25.8047C141.792 26.1536 142.247 26.6589 142.57 27.3203C142.898 27.9766 143.062 28.7708 143.062 29.7031ZM136.547 29.7031C136.547 30.3906 136.638 30.987 136.82 31.4922C137.003 31.9974 137.284 32.388 137.664 32.6641C138.044 32.9401 138.534 33.0781 139.133 33.0781C139.727 33.0781 140.214 32.9401 140.594 32.6641C140.979 32.388 141.263 31.9974 141.445 31.4922C141.628 30.987 141.719 30.3906 141.719 29.7031C141.719 29.0208 141.628 28.4323 141.445 27.9375C141.263 27.4375 140.982 27.0521 140.602 26.7812C140.221 26.5104 139.729 26.375 139.125 26.375C138.234 26.375 137.581 26.6693 137.164 27.2578C136.753 27.8464 136.547 28.6615 136.547 29.7031Z" fill="white"/>
</svg>
